<svg xmlns="http://www.w3.org/2000/svg" viewBox="0 0 980 720" role="img" aria-labelledby="title desc">
  <title id="title">Automotive battery product display</title>
  <desc id="desc">Four automotive battery products arranged for Ever Progress Marketing.</desc>
  <defs>
    <linearGradient id="bg" x1="0" x2="1" y1="0" y2="1">
      <stop offset="0" stop-color="#ffffff"/>
      <stop offset="1" stop-color="#dce9e6"/>
    </linearGradient>
    <filter id="shadow" x="-20%" y="-20%" width="140%" height="140%">
      <feDropShadow dx="0" dy="22" stdDeviation="18" flood-color="#10202b" flood-opacity="0.22"/>
    </filter>
  </defs>
  <rect x="56" y="48" width="868" height="612" rx="36" fill="url(#bg)"/>
  <path d="M120 532c120 42 235 58 346 48 156-14 245-84 384-56" fill="none" stroke="#b8d4cf" stroke-width="18" stroke-linecap="round"/>
  <g filter="url(#shadow)">
    <g transform="translate(135 248)">
      <rect x="0" y="0" width="290" height="210" rx="18" fill="#0c2d48"/>
      <rect x="28" y="-24" width="58" height="28" rx="8" fill="#10202b"/>
      <rect x="204" y="-24" width="58" height="28" rx="8" fill="#10202b"/>
      <rect x="24" y="34" width="242" height="110" rx="12" fill="#f2b84b"/>
      <text x="145" y="100" text-anchor="middle" font-family="Arial, sans-serif" font-size="54" font-weight="800" fill="#0c2d48">EPM</text>
      <rect x="48" y="160" width="194" height="16" rx="8" fill="#ffffff" opacity=".86"/>
    </g>
    <g transform="translate(344 170)">
      <rect x="0" y="0" width="310" height="230" rx="18" fill="#f6f8f3"/>
      <rect x="32" y="-24" width="62" height="28" rx="8" fill="#10202b"/>
      <rect x="216" y="-24" width="62" height="28" rx="8" fill="#10202b"/>
      <rect x="24" y="32" width="262" height="122" rx="12" fill="#c84b3a"/>
      <text x="155" y="104" text-anchor="middle" font-family="Arial, sans-serif" font-size="48" font-weight="800" fill="#ffffff">CAMEL</text>
      <rect x="54" y="172" width="202" height="18" rx="9" fill="#0c2d48" opacity=".86"/>
    </g>
    <g transform="translate(565 282)">
      <rect x="0" y="0" width="276" height="198" rx="18" fill="#187b7a"/>
      <rect x="28" y="-22" width="56" height="26" rx="8" fill="#10202b"/>
      <rect x="192" y="-22" width="56" height="26" rx="8" fill="#10202b"/>
      <rect x="22" y="32" width="232" height="100" rx="12" fill="#ffffff"/>
      <text x="138" y="92" text-anchor="middle" font-family="Arial, sans-serif" font-size="38" font-weight="800" fill="#187b7a">DUROCOM</text>
      <rect x="46" y="150" width="184" height="15" rx="8" fill="#f2b84b"/>
    </g>
    <g transform="translate(252 438)">
      <rect x="0" y="0" width="330" height="172" rx="18" fill="#10202b"/>
      <rect x="30" y="-20" width="58" height="24" rx="8" fill="#10202b"/>
      <rect x="242" y="-20" width="58" height="24" rx="8" fill="#10202b"/>
      <rect x="24" y="30" width="282" height="86" rx="12" fill="#ffffff"/>
      <text x="165" y="84" text-anchor="middle" font-family="Arial, sans-serif" font-size="48" font-weight="800" fill="#10202b">MAXTEC</text>
      <rect x="56" y="134" width="218" height="14" rx="7" fill="#187b7a"/>
    </g>
  </g>
</svg>
